<svg width="121" height="24" viewBox="0 0 121 24" fill="none" xmlns="http://www.w3.org/2000/svg">
<path d="M11.3822 2.92705C11.6815 2.00574 12.985 2.00574 13.2843 2.92705L14.8029 7.60081C14.9368 8.01284 15.3207 8.2918 15.754 8.2918H20.6682C21.637 8.2918 22.0397 9.53141 21.256 10.1008L17.2803 12.9894C16.9298 13.244 16.7831 13.6954 16.917 14.1074L18.4356 18.7812C18.735 19.7025 17.6805 20.4686 16.8968 19.8992L12.921 17.0106C12.5705 16.756 12.096 16.756 11.7455 17.0106L7.76973 19.8992C6.98602 20.4686 5.93153 19.7025 6.23089 18.7812L7.74948 14.1074C7.88336 13.6954 7.7367 13.244 7.38621 12.9894L3.41047 10.1008C2.62676 9.53141 3.02953 8.2918 3.99826 8.2918H8.91254C9.34577 8.2918 9.72972 8.01284 9.8636 7.60081L11.3822 2.92705Z" fill="#FFB31F"/>
<path d="M35.3822 2.92705C35.6815 2.00574 36.985 2.00574 37.2843 2.92705L38.8029 7.60081C38.9368 8.01284 39.3207 8.2918 39.754 8.2918H44.6682C45.637 8.2918 46.0397 9.53141 45.256 10.1008L41.2803 12.9894C40.9298 13.244 40.7831 13.6954 40.917 14.1074L42.4356 18.7812C42.735 19.7025 41.6805 20.4686 40.8968 19.8992L36.921 17.0106C36.5705 16.756 36.096 16.756 35.7455 17.0106L31.7697 19.8992C30.986 20.4686 29.9315 19.7025 30.2309 18.7812L31.7495 14.1074C31.8834 13.6954 31.7367 13.244 31.3862 12.9894L27.4105 10.1008C26.6268 9.53141 27.0295 8.2918 27.9983 8.2918H32.9125C33.3458 8.2918 33.7297 8.01284 33.8636 7.60081L35.3822 2.92705Z" fill="#FFB31F"/>
<path d="M59.3822 2.92705C59.6815 2.00574 60.985 2.00574 61.2843 2.92705L62.8029 7.60081C62.9368 8.01284 63.3207 8.2918 63.754 8.2918H68.6682C69.637 8.2918 70.0397 9.53141 69.256 10.1008L65.2803 12.9894C64.9298 13.244 64.7831 13.6954 64.917 14.1074L66.4356 18.7812C66.735 19.7025 65.6805 20.4686 64.8968 19.8992L60.921 17.0106C60.5705 16.756 60.096 16.756 59.7455 17.0106L55.7697 19.8992C54.986 20.4686 53.9315 19.7025 54.2309 18.7812L55.7495 14.1074C55.8834 13.6954 55.7367 13.244 55.3862 12.9894L51.4105 10.1008C50.6268 9.53141 51.0295 8.2918 51.9983 8.2918H56.9125C57.3458 8.2918 57.7297 8.01284 57.8636 7.60081L59.3822 2.92705Z" fill="#FFB31F"/>
<path d="M83.3822 2.92705C83.6815 2.00574 84.985 2.00574 85.2843 2.92705L86.8029 7.60081C86.9368 8.01284 87.3207 8.2918 87.754 8.2918H92.6682C93.637 8.2918 94.0397 9.53141 93.256 10.1008L89.2803 12.9894C88.9298 13.244 88.7831 13.6954 88.917 14.1074L90.4356 18.7812C90.735 19.7025 89.6805 20.4686 88.8968 19.8992L84.921 17.0106C84.5705 16.756 84.096 16.756 83.7455 17.0106L79.7697 19.8992C78.986 20.4686 77.9315 19.7025 78.2309 18.7812L79.7495 14.1074C79.8834 13.6954 79.7367 13.244 79.3862 12.9894L75.4105 10.1008C74.6268 9.53141 75.0295 8.2918 75.9983 8.2918H80.9125C81.3458 8.2918 81.7297 8.01284 81.8636 7.60081L83.3822 2.92705Z" fill="#FFB31F"/>
<path d="M107.382 2.92705C107.682 2.00574 108.985 2.00574 109.284 2.92705L110.803 7.60081C110.937 8.01284 111.321 8.2918 111.754 8.2918H116.668C117.637 8.2918 118.04 9.53141 117.256 10.1008L113.28 12.9894C112.93 13.244 112.783 13.6954 112.917 14.1074L114.436 18.7812C114.735 19.7025 113.68 20.4686 112.897 19.8992L108.921 17.0106C108.571 16.756 108.096 16.756 107.745 17.0106L103.77 19.8992C102.986 20.4686 101.932 19.7025 102.231 18.7812L103.749 14.1074C103.883 13.6954 103.737 13.244 103.386 12.9894L99.4105 10.1008C98.6268 9.53141 99.0295 8.2918 99.9983 8.2918H104.913C105.346 8.2918 105.73 8.01284 105.864 7.60081L107.382 2.92705Z" fill="#D9D9D9"/>
</svg>
