<svg width="48" height="49" viewBox="0 0 48 49" fill="none" xmlns="http://www.w3.org/2000/svg">
<rect width="48" height="48" transform="translate(0 0.154297)" fill="white" fill-opacity="0.08"/>
<path d="M20.0054 24.2157C20.0054 22.0047 21.7968 20.2119 24.0072 20.2119C26.2176 20.2119 28.0099 22.0047 28.0099 24.2157C28.0099 26.4268 26.2176 28.2196 24.0072 28.2196C21.7968 28.2196 20.0054 26.4268 20.0054 24.2157ZM17.8416 24.2157C17.8416 27.622 20.602 30.3831 24.0072 30.3831C27.4124 30.3831 30.1728 27.622 30.1728 24.2157C30.1728 20.8095 27.4124 18.0484 24.0072 18.0484C20.602 18.0484 17.8416 20.8095 17.8416 24.2157ZM28.976 17.8039C28.9759 18.0889 29.0603 18.3676 29.2185 18.6047C29.3767 18.8418 29.6017 19.0266 29.8649 19.1358C30.1281 19.245 30.4178 19.2737 30.6974 19.2182C30.9769 19.1627 31.2337 19.0255 31.4353 18.824C31.6369 18.6225 31.7742 18.3658 31.8299 18.0862C31.8856 17.8066 31.8572 17.5168 31.7482 17.2534C31.6393 16.99 31.4547 16.7649 31.2178 16.6064C30.9809 16.4479 30.7024 16.3633 30.4174 16.3632C30.0355 16.3634 29.6686 16.5152 29.3984 16.7853C29.1282 17.0554 28.9763 17.4218 28.976 17.8039ZM19.1563 33.9921C17.9856 33.9388 17.3494 33.7438 16.9265 33.579C16.3659 33.3607 15.9659 33.1007 15.5454 32.6806C15.1248 32.2605 14.8645 31.8608 14.6473 31.3C14.4824 30.8772 14.2874 30.2406 14.2342 29.0696C14.176 27.8036 14.1644 27.4233 14.1644 24.2158C14.1644 21.0084 14.177 20.6292 14.2342 19.3621C14.2875 18.1911 14.484 17.5557 14.6473 17.1317C14.8655 16.5709 15.1254 16.1708 15.5454 15.7501C15.9654 15.3295 16.365 15.0691 16.9265 14.8518C17.3492 14.6869 17.9856 14.4918 19.1563 14.4386C20.4219 14.3804 20.8021 14.3687 24.0072 14.3687C27.2123 14.3687 27.5928 14.3813 28.8596 14.4386C30.0302 14.4919 30.6654 14.6884 31.0893 14.8518C31.6499 15.0691 32.0499 15.3301 32.4705 15.7501C32.891 16.1702 33.1503 16.5709 33.3686 17.1317C33.5334 17.5544 33.7284 18.1911 33.7816 19.3621C33.8399 20.6292 33.8515 21.0084 33.8515 24.2158C33.8515 27.4233 33.8399 27.8025 33.7816 29.0696C33.7283 30.2406 33.5324 30.8771 33.3686 31.3C33.1503 31.8608 32.8904 32.2609 32.4705 32.6806C32.0505 33.1003 31.6499 33.3607 31.0893 33.579C30.6667 33.7439 30.0302 33.9389 28.8596 33.9921C27.5939 34.0504 27.2137 34.062 24.0072 34.062C20.8007 34.062 20.4216 34.0504 19.1563 33.9921ZM19.0569 12.2778C17.7786 12.336 16.9052 12.5388 16.1424 12.8357C15.3524 13.1423 14.6837 13.5536 14.0154 14.221C13.3471 14.8885 12.9369 15.5585 12.6304 16.3487C12.3336 17.1122 12.1309 17.9854 12.0727 19.264C12.0135 20.5446 12 20.954 12 24.2157C12 27.4775 12.0135 27.8869 12.0727 29.1675C12.1309 30.4462 12.3336 31.3193 12.6304 32.0828C12.9369 32.8726 13.3472 33.5433 14.0154 34.2104C14.6836 34.8776 15.3524 35.2883 16.1424 35.5958C16.9066 35.8927 17.7786 36.0954 19.0569 36.1537C20.3378 36.2119 20.7464 36.2264 24.0072 36.2264C27.268 36.2264 27.6773 36.2129 28.9575 36.1537C30.2359 36.0954 31.1087 35.8927 31.872 35.5958C32.6615 35.2883 33.3307 34.8779 33.999 34.2104C34.6673 33.543 35.0766 32.8726 35.384 32.0828C35.6808 31.3193 35.8844 30.4461 35.9417 29.1675C35.9999 27.8859 36.0134 27.4775 36.0134 24.2157C36.0134 20.954 35.9999 20.5446 35.9417 19.264C35.8835 17.9853 35.6808 17.1117 35.384 16.3487C35.0766 15.5589 34.6662 14.8895 33.999 14.221C33.3318 13.5526 32.6615 13.1423 31.873 12.8357C31.1087 12.5388 30.2358 12.3351 28.9585 12.2778C27.6782 12.2196 27.2689 12.2051 24.0082 12.2051C20.7474 12.2051 20.3378 12.2186 19.0569 12.2778Z" fill="white"/>
<path d="M20.0054 24.2157C20.0054 22.0047 21.7968 20.2119 24.0072 20.2119C26.2176 20.2119 28.0099 22.0047 28.0099 24.2157C28.0099 26.4268 26.2176 28.2196 24.0072 28.2196C21.7968 28.2196 20.0054 26.4268 20.0054 24.2157ZM17.8416 24.2157C17.8416 27.622 20.602 30.3831 24.0072 30.3831C27.4124 30.3831 30.1728 27.622 30.1728 24.2157C30.1728 20.8095 27.4124 18.0484 24.0072 18.0484C20.602 18.0484 17.8416 20.8095 17.8416 24.2157ZM28.976 17.8039C28.9759 18.0889 29.0603 18.3676 29.2185 18.6047C29.3767 18.8418 29.6017 19.0266 29.8649 19.1358C30.1281 19.245 30.4178 19.2737 30.6974 19.2182C30.9769 19.1627 31.2337 19.0255 31.4353 18.824C31.6369 18.6225 31.7742 18.3658 31.8299 18.0862C31.8856 17.8066 31.8572 17.5168 31.7482 17.2534C31.6393 16.99 31.4547 16.7649 31.2178 16.6064C30.9809 16.4479 30.7024 16.3633 30.4174 16.3632C30.0355 16.3634 29.6686 16.5152 29.3984 16.7853C29.1282 17.0554 28.9763 17.4218 28.976 17.8039ZM19.1563 33.9921C17.9856 33.9388 17.3494 33.7438 16.9265 33.579C16.3659 33.3607 15.9659 33.1007 15.5454 32.6806C15.1248 32.2605 14.8645 31.8608 14.6473 31.3C14.4824 30.8772 14.2874 30.2406 14.2342 29.0696C14.176 27.8036 14.1644 27.4233 14.1644 24.2158C14.1644 21.0084 14.177 20.6292 14.2342 19.3621C14.2875 18.1911 14.484 17.5557 14.6473 17.1317C14.8655 16.5709 15.1254 16.1708 15.5454 15.7501C15.9654 15.3295 16.365 15.0691 16.9265 14.8518C17.3492 14.6869 17.9856 14.4918 19.1563 14.4386C20.4219 14.3804 20.8021 14.3687 24.0072 14.3687C27.2123 14.3687 27.5928 14.3813 28.8596 14.4386C30.0302 14.4919 30.6654 14.6884 31.0893 14.8518C31.6499 15.0691 32.0499 15.3301 32.4705 15.7501C32.891 16.1702 33.1503 16.5709 33.3686 17.1317C33.5334 17.5544 33.7284 18.1911 33.7816 19.3621C33.8399 20.6292 33.8515 21.0084 33.8515 24.2158C33.8515 27.4233 33.8399 27.8025 33.7816 29.0696C33.7283 30.2406 33.5324 30.8771 33.3686 31.3C33.1503 31.8608 32.8904 32.2609 32.4705 32.6806C32.0505 33.1003 31.6499 33.3607 31.0893 33.579C30.6667 33.7439 30.0302 33.9389 28.8596 33.9921C27.5939 34.0504 27.2137 34.062 24.0072 34.062C20.8007 34.062 20.4216 34.0504 19.1563 33.9921ZM19.0569 12.2778C17.7786 12.336 16.9052 12.5388 16.1424 12.8357C15.3524 13.1423 14.6837 13.5536 14.0154 14.221C13.3471 14.8885 12.9369 15.5585 12.6304 16.3487C12.3336 17.1122 12.1309 17.9854 12.0727 19.264C12.0135 20.5446 12 20.954 12 24.2157C12 27.4775 12.0135 27.8869 12.0727 29.1675C12.1309 30.4462 12.3336 31.3193 12.6304 32.0828C12.9369 32.8726 13.3472 33.5433 14.0154 34.2104C14.6836 34.8776 15.3524 35.2883 16.1424 35.5958C16.9066 35.8927 17.7786 36.0954 19.0569 36.1537C20.3378 36.2119 20.7464 36.2264 24.0072 36.2264C27.268 36.2264 27.6773 36.2129 28.9575 36.1537C30.2359 36.0954 31.1087 35.8927 31.872 35.5958C32.6615 35.2883 33.3307 34.8779 33.999 34.2104C34.6673 33.543 35.0766 32.8726 35.384 32.0828C35.6808 31.3193 35.8844 30.4461 35.9417 29.1675C35.9999 27.8859 36.0134 27.4775 36.0134 24.2157C36.0134 20.954 35.9999 20.5446 35.9417 19.264C35.8835 17.9853 35.6808 17.1117 35.384 16.3487C35.0766 15.5589 34.6662 14.8895 33.999 14.221C33.3318 13.5526 32.6615 13.1423 31.873 12.8357C31.1087 12.5388 30.2358 12.3351 28.9585 12.2778C27.6782 12.2196 27.2689 12.2051 24.0082 12.2051C20.7474 12.2051 20.3378 12.2186 19.0569 12.2778Z" fill="white"/>
</svg>
