<svg width="48" height="49" viewBox="0 0 48 49" fill="none" xmlns="http://www.w3.org/2000/svg">
<rect width="48" height="48" transform="translate(0 0.154297)" fill="white" fill-opacity="0.08"/>
<path d="M35.9131 16.5551C35.1206 16.8965 34.2874 17.1342 33.4341 17.2624C33.833 17.1939 34.42 16.4752 34.6537 16.1843C35.0086 15.7455 35.2792 15.2446 35.4515 14.707C35.4515 14.6671 35.4914 14.61 35.4515 14.5815C35.4314 14.5705 35.4089 14.5648 35.386 14.5648C35.3631 14.5648 35.3405 14.5705 35.3204 14.5815C34.3939 15.0837 33.4078 15.467 32.3855 15.7223C32.3499 15.7332 32.3119 15.7342 32.2758 15.7251C32.2396 15.7161 32.2066 15.6974 32.1803 15.671C32.1008 15.5761 32.0151 15.4866 31.9239 15.4029C31.5069 15.0289 31.0338 14.7229 30.5219 14.4959C29.831 14.2122 29.0846 14.0893 28.3392 14.1366C27.616 14.1823 26.9099 14.3765 26.2648 14.707C25.6296 15.0555 25.0713 15.5289 24.6235 16.0988C24.1525 16.6853 23.8124 17.3661 23.6262 18.0952C23.4727 18.7887 23.4552 19.5055 23.5749 20.2056C23.5749 20.3254 23.5749 20.3425 23.4723 20.3254C19.409 19.7265 16.0751 18.2834 13.351 15.1861C13.2313 15.0492 13.1687 15.0492 13.0718 15.1861C11.8864 16.9886 12.462 19.8406 13.9437 21.2495C14.1432 21.4377 14.3483 21.6202 14.5649 21.7914C13.8855 21.7431 13.2228 21.5588 12.6159 21.2495C12.5019 21.1753 12.4392 21.2153 12.4335 21.3522C12.4173 21.5419 12.4173 21.7328 12.4335 21.9226C12.5524 22.8321 12.9105 23.6937 13.4713 24.4193C14.032 25.1449 14.7752 25.7084 15.6249 26.0523C15.832 26.1411 16.0479 26.208 16.2689 26.2519C15.64 26.3758 14.9949 26.3951 14.3597 26.3089C14.223 26.2804 14.1717 26.3546 14.223 26.4858C15.0607 28.7674 16.8787 29.4632 18.2122 29.8511C18.3946 29.8796 18.577 29.8796 18.7821 29.9253C18.7821 29.9253 18.7821 29.9253 18.7479 29.9595C18.3547 30.6782 16.7647 31.163 16.0352 31.414C14.7038 31.8927 13.2842 32.0757 11.875 31.9502C11.6527 31.916 11.6015 31.9217 11.5445 31.9502C11.4875 31.9787 11.5445 32.0415 11.6071 32.0985C11.8921 32.2867 12.177 32.4522 12.4734 32.6119C13.3556 33.0935 14.2883 33.4761 15.2545 33.7527C20.2581 35.133 25.8887 34.1177 29.6443 30.3816C32.5964 27.4497 33.6336 23.4056 33.6336 19.3557C33.6336 19.2017 33.8216 19.1105 33.9299 19.0306C34.6768 18.4482 35.3352 17.7603 35.8846 16.9886C35.9798 16.8735 36.0286 16.7271 36.0214 16.5779C36.0214 16.4923 36.0214 16.5094 35.9131 16.5551Z" fill="white"/>
</svg>
