<svg width="48" height="49" viewBox="0 0 48 49" fill="none" xmlns="http://www.w3.org/2000/svg">
<rect width="48" height="48" transform="translate(0 0.154297)" fill="white" fill-opacity="0.08"/>
<path d="M37.3504 17.5523C37.037 16.3741 36.1099 15.4446 34.9304 15.1261C32.7976 14.5544 24.2405 14.5544 24.2405 14.5544C24.2405 14.5544 15.6878 14.5544 13.5507 15.1261C12.3756 15.4403 11.4485 16.3697 11.1307 17.5523C10.5605 19.6904 10.5605 24.1544 10.5605 24.1544C10.5605 24.1544 10.5605 28.6184 11.1307 30.7566C11.4441 31.9348 12.3712 32.8643 13.5507 33.1828C15.6878 33.7544 24.2405 33.7544 24.2405 33.7544C24.2405 33.7544 32.7976 33.7544 34.9304 33.1828C36.1055 32.8686 37.0326 31.9392 37.3504 30.7566C37.9205 28.6184 37.9205 24.1544 37.9205 24.1544C37.9205 24.1544 37.9205 19.6904 37.3504 17.5523Z" fill="white"/>
<path d="M21.5071 28.2695L28.6147 24.1544L21.5071 20.0396V28.2695Z" fill="#252525"/>
</svg>
